/* XPM */
static char * 1_xpm[] = {
"13 13 2 1",
" 	c #FFFFFF",
".	c #000000",
"             ",
"             ",
"       .     ",
"     ...     ",
"       .     ",
"       .     ",
"       .     ",
"       .     ",
"       .     ",
"       .     ",
"       .     ",
"     .....   ",
"             "};
