/* XPM */
static char * 5_xpm[] = {
"13 13 2 1",
" 	c #FFFFFF",
".	c #000000",
"             ",
"             ",
"      ....   ",
"      ...    ",
"     .       ",
"     ...     ",
"     . ..    ",
"        ..   ",
"         .   ",
"         .   ",
"     .  .    ",
"     ...     ",
"             "};
