/* XPM */
static char * 7_xpm[] = {
"13 13 2 1",
" 	c #FFFFFF",
".	c #000000",
"             ",
"             ",
"    ......   ",
"    .    .   ",
"        .    ",
"        .    ",
"       .     ",
"       .     ",
"      .      ",
"      .      ",
"     .       ",
"     .       ",
"             "};
