/* XPM */
static char * Berserk2_xpm[] = {
"13 13 26 1",
" 	c #FFFFFF",
".	c #CECECE",
"+	c #221F1F",
"@	c #242121",
"#	c #494747",
"$	c #D6D6D6",
"%	c #524F4F",
"&	c #F8F8F8",
"*	c #929090",
"=	c #605E5E",
"-	c #F7F7F7",
";	c #8F8E8E",
">	c #7A7878",
",	c #2C2929",
"'	c #D5D5D5",
")	c #FDFDFD",
"!	c #E4E4E4",
"~	c #686666",
"{	c #5E5C5C",
"]	c #CBCACA",
"^	c #535151",
"/	c #F9F9F9",
"(	c #A6A5A5",
"_	c #7A7979",
":	c #555353",
"<	c #E8E7E7",
"             ",
"             ",
"             ",
"   .+++@#$   ",
"   .%  &*=   ",
"   .%  -;>   ",
"   .++++,'   ",
"   .% )!~{   ",
"   .%   ]^   ",
"   .%  /(_   ",
"   .+++@:<   ",
"             ",
"             "};
