/* XPM */
static char * Cocoon_xpm[] = {
"13 13 33 1",
" 	c #FFFFFF",
".	c #E3E3E3",
"+	c #666666",
"@	c #1D1D1D",
"#	c #050505",
"$	c #151515",
"%	c #545454",
"&	c #CACACA",
"*	c #DCDCDC",
"=	c #161616",
"-	c #4E4E4E",
";	c #C1C1C1",
">	c #E2E2E2",
",	c #CCCCCC",
"'	c #797979",
")	c #4A4A4A",
"!	c #464646",
"~	c #EFEFEF",
"{	c #ECECEC",
"]	c #010101",
"^	c #B9B9B9",
"/	c #C8C8C8",
"(	c #000000",
"_	c #454545",
":	c #494949",
"<	c #DADADA",
"[	c #CECECE",
"}	c #7D7D7D",
"|	c #646464",
"1	c #1B1B1B",
"2	c #040404",
"3	c #555555",
"4	c #CDCDCD",
"             ",
"             ",
"    .+@#$%&  ",
"   *=-;>,')  ",
"   !)     ~  ",
"  {]^        ",
"  /(.        ",
"  /(.        ",
"  {]^        ",
"   _:     ~  ",
"   <$-;>[})  ",
"    >|12$34  ",
"             "};
