/* XPM */
static char * Depanneuse_xpm[] = {
"13 13 25 1",
" 	c #FFFFFF",
".	c #CFCFCF",
"+	c #000000",
"@	c #1F1F1F",
"#	c #A2A2A2",
"$	c #2F2F2F",
"%	c #FCFCFC",
"&	c #E8E8E8",
"*	c #9A9A9A",
"=	c #0A0A0A",
"-	c #C8C8C8",
";	c #8B8B8B",
">	c #636363",
",	c #373737",
"'	c #C4C4C4",
")	c #3F3F3F",
"!	c #7B7B7B",
"~	c #828282",
"{	c #FDFDFD",
"]	c #EBEBEB",
"^	c #A0A0A0",
"/	c #121212",
"(	c #DEDEDE",
"_	c #010101",
":	c #B9B9B9",
"             ",
"             ",
"             ",
"   .++++@#   ",
"   .$ %&*=-  ",
"   .$    ;>  ",
"   .$    -,  ",
"   .$    ')  ",
"   .$    !~  ",
"   .$ {]^/(  ",
"   .+++_$:   ",
"             ",
"             "};
