/* XPM */
static char * Enfant2_xpm[] = {
"13 13 5 1",
" 	c #FFFFFF",
".	c #221F1F",
"+	c #393737",
"@	c #7B7979",
"#	c #F1F1F1",
"             ",
"             ",
"             ",
"   .....+    ",
"   .         ",
"   .         ",
"   .....@    ",
"   .         ",
"   .         ",
"   .         ",
"   ......#   ",
"             ",
"             "};
