/* XPM */
static char * Femme_xpm[] = {
"13 13 4 1",
" 	c #FFFFFF",
".	c #221F1F",
"+	c #868484",
"@	c #252222",
"             ",
"             ",
"             ",
"    .....+   ",
"    .        ",
"    .        ",
"    .        ",
"    ....@    ",
"    .        ",
"    .        ",
"    .        ",
"             ",
"             "};
