/* XPM */
static char * humidite_xpm[] = {
"13 13 73 1",
" 	c #FFFFFF",
".	c #FDFEFF",
"+	c #F8FBFB",
"@	c #EEF7F8",
"#	c #C4E1E5",
"$	c #B1D7DD",
"%	c #53A8B6",
"&	c #F6FBFB",
"*	c #3798AA",
"=	c #00778E",
"-	c #B0D7DC",
";	c #77BAC6",
">	c #007690",
",	c #007E97",
"'	c #2091A7",
")	c #E2F1F3",
"!	c #BDDDE0",
"~	c #047F98",
"{	c #0081A0",
"]	c #008AAB",
"^	c #0083A8",
"/	c #5BB2C7",
"(	c #FCFDFD",
"_	c #F5FAFC",
":	c #33A0BA",
"<	c #007E9E",
"[	c #018EB3",
"}	c #0193BD",
"|	c #008EBA",
"1	c #038BB5",
"2	c #A4D6E3",
"3	c #C1E4EE",
"4	c #0090BC",
"5	c #008CB5",
"6	c #0094BE",
"7	c #009ACC",
"8	c #0797CB",
"9	c #098EBD",
"0	c #4EB3D0",
"a	c #FDFEFE",
"b	c #ACD7E4",
"c	c #008BB8",
"d	c #0095C5",
"e	c #0097C6",
"f	c #0AA0D7",
"g	c #61BCE7",
"h	c #6CB1D4",
"i	c #57B1CD",
"j	c #F5F9FB",
"k	c #D3E8EE",
"l	c #0587AF",
"m	c #0093C4",
"n	c #009ACE",
"o	c #2FAAD7",
"p	c #87C8E9",
"q	c #69B0D2",
"r	c #65B0CA",
"s	c #FEFFFE",
"t	c #6AB4CB",
"u	c #007BA9",
"v	c #008BBD",
"w	c #008EBE",
"x	c #1C94C0",
"y	c #3499BF",
"z	c #C4E1EA",
"A	c #F7FBFC",
"B	c #80BED3",
"C	c #2391B7",
"D	c #118BB5",
"E	c #3FA2C4",
"F	c #BBDEE9",
"G	c #F2F8F9",
"H	c #E9F4F7",
"     .+      ",
"     @#      ",
"     $%      ",
"    &*=-     ",
"    ;>,')    ",
"   !~{]^/(   ",
"  _:<[}|12   ",
"  34567890a  ",
"  bcdefghij  ",
"  klmnopqra  ",
"  stuvwxyz   ",
"   ABCDEF    ",
"     GHa     "};
