/* XPM */
static char * Joueur_xpm[] = {
"13 13 17 1",
" 	c #FFFFFF",
".	c #4B4B4B",
"+	c #B3B3B3",
"@	c #F2F2F2",
"#	c #484848",
"$	c #B5B5B5",
"%	c #616161",
"&	c #636363",
"*	c #EFEFEF",
"=	c #CECECE",
"-	c #111111",
";	c #D2D2D2",
">	c #C9C9C9",
",	c #272727",
"'	c #010101",
")	c #0C0C0C",
"!	c #717171",
"             ",
"             ",
"             ",
"         .+  ",
"         .+  ",
"         .+  ",
"         .+  ",
"         .+  ",
"      @  #$  ",
"     %&*=-;  ",
"     >,')!   ",
"             ",
"             "};
