/* XPM */
static char * Larva_xpm[] = {
"13 13 7 1",
" 	c #FFFFFF",
".	c #BFBFBF",
"+	c #000000",
"@	c #EBEBEB",
"#	c #CFCFCF",
"$	c #FDFDFD",
"%	c #F3F3F3",
"             ",
"             ",
"   .+@       ",
"   .+@       ",
"   .+@       ",
"   .+@       ",
"   .+@       ",
"   .+@       ",
"   .+@       ",
"   .+@       ",
"   .+.####$  ",
"   .++++++%  ",
"             "};
