/* XPM */
static char * lumiere_xpm[] = {
"13 13 41 1",
" 	c #81ABFF",
".	c #F8E60F",
"+	c #B4C597",
"@	c #8AAFED",
"#	c #FFEA00",
"$	c #88AFF0",
"%	c #B3C499",
"&	c #99B7CF",
"*	c #BCC888",
"=	c #87AEF3",
"-	c #85ADF6",
";	c #BBC88A",
">	c #9CB8C9",
",	c #9DB9C6",
"'	c #D2D45A",
")	c #E5DD35",
"!	c #AFC3A0",
"~	c #B8C690",
"{	c #A0BBC0",
"]	c #ACC1A7",
"^	c #C6CD74",
"/	c #E7DE31",
"(	c #E8DF2E",
"_	c #E7DE30",
":	c #E9DF2D",
"<	c #AEC1A4",
"[	c #C5CD75",
"}	c #9BB8CA",
"|	c #D4D457",
"1	c #E7DD31",
"2	c #E6DE32",
"3	c #B3C49A",
"4	c #B9C78D",
"5	c #9EBAC4",
"6	c #97B6D3",
"7	c #BDC986",
"8	c #88AEF1",
"9	c #86AEF4",
"0	c #9AB7CD",
"a	c #8BB0EA",
"b	c #89AFEE",
"      .      ",
"  +@  #   $% ",
"  &*= #  -;> ",
"   ,')#)!~{  ",
"   ]#####^   ",
"   /#####(   ",
".###########.",
"   _#####:   ",
"   <#####[   ",
"   }|1#2345  ",
"  678 #  9*0 ",
"  +a  #   b% ",
"      .      "};
