/* XPM */
static char * nourriture_xpm[] = {
"13 13 127 2",
"  	c None",
". 	c #FF0000",
"+ 	c #F70B0B",
"@ 	c #BC5A1A",
"# 	c #BE6613",
"$ 	c #EE1210",
"% 	c #F80B0B",
"& 	c #C15F1F",
"* 	c #BE6415",
"= 	c #EF1110",
"- 	c #FF0101",
"; 	c #CE6E3B",
"> 	c #E9C310",
", 	c #E6BF0F",
"' 	c #CC7923",
") 	c #FE0202",
"! 	c #D06439",
"~ 	c #E8C313",
"{ 	c #E9C20D",
"] 	c #CC7D22",
"^ 	c #FD0505",
"/ 	c #E51D19",
"( 	c #E9CC3E",
"_ 	c #CB6326",
": 	c #CD573C",
"< 	c #EACA31",
"[ 	c #C83B25",
"} 	c #E6C74A",
"| 	c #D16C2A",
"1 	c #D0563B",
"2 	c #EECB2D",
"3 	c #E23426",
"4 	c #D05D3C",
"5 	c #F0CF33",
"6 	c #E52C20",
"7 	c #E32924",
"8 	c #EDD45F",
"9 	c #C8A71D",
"0 	c #EDCF44",
"a 	c #D93D21",
"b 	c #EF1817",
"c 	c #EED456",
"d 	c #C77126",
"e 	c #F80808",
"f 	c #D3AA5B",
"g 	c #E1BC27",
"h 	c #F60D0D",
"i 	c #EC1210",
"j 	c #E6CA64",
"k 	c #FDE05E",
"l 	c #EDCF3E",
"m 	c #DF261A",
"n 	c #D1A65C",
"o 	c #E1BE28",
"p 	c #EF1312",
"q 	c #E4221E",
"r 	c #F2DB65",
"s 	c #C28021",
"t 	c #FE0000",
"u 	c #F70605",
"v 	c #D0AC61",
"w 	c #FFEC8B",
"x 	c #E2BC25",
"y 	c #E8110F",
"z 	c #D07750",
"A 	c #F5D53E",
"B 	c #D93322",
"C 	c #D13C2C",
"D 	c #FCE46F",
"E 	c #C0581A",
"F 	c #FD0202",
"G 	c #C78D57",
"H 	c #FFEE85",
"I 	c #CC9E14",
"J 	c #F50808",
"K 	c #D14C37",
"L 	c #F8DD5B",
"M 	c #C74519",
"N 	c #D05E42",
"O 	c #F8DF67",
"P 	c #CB441B",
"Q 	c #C77A52",
"R 	c #FFEE78",
"S 	c #C48B13",
"T 	c #F90404",
"U 	c #D73529",
"V 	c #FBE36F",
"W 	c #C9691F",
"X 	c #C77450",
"Y 	c #FBDF59",
"Z 	c #D5381E",
"` 	c #C56346",
" .	c #FFEF6C",
"..	c #C2750D",
"+.	c #FC0102",
"@.	c #DE2620",
"#.	c #F8E37F",
"$.	c #CE8322",
"%.	c #C79360",
"&.	c #FADC4E",
"*.	c #C2200E",
"=.	c #AD4029",
"-.	c #FFF579",
";.	c #B96C09",
">.	c #FD0101",
",.	c #D6100D",
"'.	c #F5E48D",
").	c #C88D18",
"!.	c #BBA55E",
"~.	c #FDDC41",
"{.	c #BF190A",
"].	c #9C3612",
"^.	c #FFE637",
"/.	c #A46408",
"(.	c #FC0000",
"_.	c #C80100",
":.	c #F5E28B",
"<.	c #CCA418",
"[.	c #A07218",
"}.	c #C4960A",
"|.	c #BF0902",
"1.	c #BC0600",
"2.	c #A31E00",
"3.	c #B30D03",
"4.	c #CA0200",
"5.	c #BF9321",
"6.	c #A97404",
". . . . . . . . . . . . . ",
". . + @ # $ . % & * = . . ",
". - ; > , ' ) ! ~ { ] ^ . ",
". / ( _ : < [ } | 1 2 3 . ",
". 4 5 6 7 8 9 0 a b c d - ",
"e f g h i j k l m . n o p ",
"q r s t u v w x y . z A B ",
"C D E . F G H I J . K L M ",
"N O P . . Q R S T . U V W ",
"X Y Z . . `  ...+.. @.#.$.",
"%.&.*.. . =.-.;.>.. ,.'.).",
"!.~.{.. . ].^./.(.. _.:.<.",
"[.}.|.. . 1.2.3.. . 4.5.6."};
