/* XPM */
static char * egg_xpm[] = {
"13 13 257 2",
"  	c None",
". 	c #85BFCE",
"+ 	c #FDFDEB",
"@ 	c #FFFFF4",
"# 	c #FFFFFA",
"$ 	c #FDFDFD",
"% 	c #FEFEFE",
"& 	c #FFFFFF",
"* 	c #FAFAFA",
"= 	c #F6F6F6",
"- 	c #F2F2F2",
"; 	c #FEE4FE",
"> 	c #FFE5FF",
", 	c #FDE2FD",
"' 	c #ECECEC",
") 	c #E4E4E4",
"! 	c #FADCFA",
"~ 	c #F6D4F6",
"{ 	c #F1CCF1",
"] 	c #EFC8EF",
"^ 	c #EBC3EB",
"/ 	c #FFFFD2",
"( 	c #DBDBDB",
"_ 	c #D4D4D4",
": 	c #CCCCCC",
"< 	c #C4C4C4",
"[ 	c #A2F1FF",
"} 	c #A5F2FF",
"| 	c #A6F2FF",
"1 	c #93EEFF",
"2 	c #E0AFE0",
"3 	c #E5B8E5",
"4 	c #DBA6DB",
"5 	c #D49BD4",
"6 	c #D194D1",
"7 	c #CF91CF",
"8 	c #C787C7",
"9 	c #CC8BCC",
"0 	c #CD8ECD",
"a 	c #CC8DCC",
"b 	c #CC8CCC",
"c 	c #CA8ACA",
"d 	c #C485C4",
"e 	c #FFFFB3",
"f 	c #FFFF91",
"g 	c #82FF82",
"h 	c #81FF81",
"i 	c #BCBCBC",
"j 	c #B4B4B4",
"k 	c #ACACAC",
"l 	c #A4A4A4",
"m 	c #BD82BD",
"n 	c #9B9B9B",
"o 	c #949494",
"p 	c #8B8B8B",
"q 	c #848484",
"r 	c #5BE1FF",
"s 	c #78E7FF",
"t 	c #63E2FF",
"u 	c #6DE5FF",
"v 	c #6BE5FF",
"w 	c #4CDDFF",
"x 	c #2FD7FF",
"y 	c #16D1FF",
"z 	c #03C7F8",
"A 	c #01CAFD",
"B 	c #03CDFF",
"C 	c #01CCFF",
"D 	c #00CCFF",
"E 	c #00B9E7",
"F 	c #008AE6",
"G 	c #0095F8",
"H 	c #0098FD",
"I 	c #0098FE",
"J 	c #0099FF",
"K 	c #00AAD4",
"L 	c #0092CE",
"M 	c #0093B8",
"N 	c #0089AC",
"O 	c #0085A6",
"P 	c #0080A1",
"Q 	c #0082A3",
"R 	c #C27BC2",
"S 	c #A16FA1",
"T 	c #B879B8",
"U 	c #B768B7",
"V 	c #A974A9",
"W 	c #B15EB1",
"X 	c #AE59AE",
"Y 	c #AC55AC",
"Z 	c #AA52AA",
"` 	c #A850A8",
" .	c #A94FA9",
"..	c #A84FA8",
"+.	c #A54EA5",
"@.	c #8E618E",
"#.	c #986898",
"$.	c #8A418A",
"%.	c #994899",
"&.	c #855B85",
"*.	c #823D82",
"=.	c #0078C8",
"-.	c #0072B1",
";.	c #0068AD",
">.	c #0062A3",
",.	c #017694",
"'.	c #006A84",
").	c #00558E",
"!.	c #FFFF73",
"~.	c #FFFF4F",
"{.	c #FFFF30",
"].	c #FFFF1B",
"^.	c #FFFF12",
"/.	c #FFF906",
"(.	c #FBFA01",
"_.	c #FDFD00",
":.	c #FEFE00",
"<.	c #FFFF00",
"[.	c #F4F400",
"}.	c #FFE700",
"|.	c #ECEC00",
"1.	c #E3E300",
"2.	c #FFD700",
"3.	c #F5C400",
"4.	c #FDCB00",
"5.	c #FFCE00",
"6.	c #FFCD00",
"7.	c #FFCC00",
"8.	c #D8D800",
"9.	c #C7C700",
"0.	c #C49D00",
"a.	c #E7B900",
"b.	c #D4AA00",
"c.	c #B7B700",
"d.	c #A7A700",
"e.	c #AF8C00",
"f.	c #979700",
"g.	c #878700",
"h.	c #74F774",
"i.	c #7CFC7C",
"j.	c #6AF16A",
"k.	c #63ED63",
"l.	c #4FE14F",
"m.	c #58E658",
"n.	c #47DC47",
"o.	c #30CE30",
"p.	c #3AD43A",
"q.	c #28CA28",
"r.	c #1CC31C",
"s.	c #14BE14",
"t.	c #08B708",
"u.	c #0DBA0D",
"v.	c #05B505",
"w.	c #00B100",
"x.	c #01B301",
"y.	c #00B200",
"z.	c #00AC00",
"A.	c #00A300",
"B.	c #009A00",
"C.	c #009300",
"D.	c #008B00",
"E.	c #008400",
"F.	c #8A6F00",
"G.	c #483A00",
"H.	c #7C7C7C",
"I.	c #747474",
"J.	c #6C6C6C",
"K.	c #646464",
"L.	c #724E72",
"M.	c #795379",
"N.	c #664666",
"O.	c #5E415E",
"P.	c #5C5C5C",
"Q.	c #555555",
"R.	c #4C4C4C",
"S.	c #444444",
"T.	c #0B5D72",
"U.	c #00546F",
"V.	c #004758",
"W.	c #411F41",
"X.	c #703570",
"Y.	c #632E63",
"Z.	c #513851",
"`.	c #572957",
" +	c #4A244A",
".+	c #003E68",
"++	c #00364D",
"@+	c #6F5800",
"#+	c #7C6300",
"$+	c #797900",
"%+	c #666600",
"&+	c #534200",
"*+	c #585800",
"=+	c #484800",
"-+	c #007C00",
";+	c #007300",
">+	c #006A00",
",+	c #006500",
"'+	c #006700",
")+	c #006600",
"!+	c #006200",
"~+	c #005A00",
"{+	c #005E00",
"]+	c #005D00",
"^+	c #005C00",
"/+	c #005400",
"(+	c #004C00",
"_+	c #004400",
":+	c #231C00",
"<+	c #3C3C3C",
"[+	c #333333",
"}+	c #392739",
"|+	c #2E202E",
"1+	c #2B2B2B",
"2+	c #232323",
"3+	c #002832",
"4+	c #002837",
"5+	c #210F21",
"6+	c #391B39",
"7+	c #271727",
"8+	c #001D31",
"9+	c #001923",
"0+	c #373700",
"a+	c #282700",
"b+	c #003B00",
"c+	c #003100",
"d+	c #003500",
"e+	c #002400",
"f+	c #002C00",
"g+	c #040E0E",
"h+	c #1B131B",
"i+	c #1B1B1B",
"j+	c #131313",
"k+	c #00141A",
"l+	c #1B0D1B",
"m+	c #130C13",
"n+	c #1B1500",
"o+	c #1C1C00",
"p+	c #131300",
"q+	c #001C00",
"r+	c #001400",
"s+	c #020709",
"t+	c #0E0C0E",
"u+	c #090909",
"v+	c #0A060A",
"w+	c #0B0B00",
"x+	c #000B00",
"y+	c #030402",
"z+	c #050505",
"A+	c #010201",
"B+	c #020202",
"C+	c #010101",
"D+	c #000101",
"E+	c #010001",
"F+	c #010100",
"G+	c #000100",
"H+	c #000000",
"          H+H+H+          ",
"        H+..b > H+        ",
"        ..b b b b         ",
"      H+..b b b > H+      ",
"      ....b b b b c       ",
"    H+7.<.<.<.<.<.        ",
"    H+H+H+K H+<.H+H+H+    ",
"    H+H+H+H+H+H+H+H+H+    ",
"    H+)+y.y.y.y.y.g H+    ",
"    H+)+y.y.y.y.y.g H+    ",
"    p )+)+y.y.y.g )+      ",
"      H+)+)+)+)+)+H+      ",
"          H+H+H+          "};
