/* XPM */
static char * Worker_xpm[] = {
"13 13 43 1",
" 	c #FFFFFF",
".	c #E0E0E0",
"+	c #5F5F5F",
"@	c #181818",
"#	c #050505",
"$	c #212121",
"%	c #757575",
"&	c #F1F1F1",
"*	c #DADADA",
"=	c #141414",
"-	c #4E4E4E",
";	c #C6C6C6",
">	c #E1E1E1",
",	c #B8B8B8",
"'	c #333333",
")	c #2F2F2F",
"!	c #F4F4F4",
"~	c #464646",
"{	c #444444",
"]	c #FEFEFE",
"^	c #F3F3F3",
"/	c #202020",
"(	c #787878",
"_	c #ECECEC",
":	c #010101",
"<	c #B6B6B6",
"[	c #888888",
"}	c #1F1F1F",
"|	c #C8C8C8",
"1	c #000000",
"2	c #E3E3E3",
"3	c #F9F9F9",
"4	c #B5B5B5",
"5	c #D8D8D8",
"6	c #131313",
"7	c #4F4F4F",
"8	c #E2E2E2",
"9	c #BABABA",
"0	c #343434",
"a	c #DEDEDE",
"b	c #5D5D5D",
"c	c #161616",
"d	c #747474",
"             ",
"             ",
"    .+@#$%&  ",
"   *=-;>,')! ",
"   ~{]   ^/( ",
"  _:<     [} ",
"  |12     <13",
"  |12     <13",
"  _:4     [} ",
"   {{]   ^/( ",
"   567;890)! ",
"    abc#}d&  ",
"             "};
