/* XPM */
static char * palmier_xpm[] = {
"30 30 2 1",
" 	c #FFFFFF",
".	c #397B08",
"                              ",
"  ..                    ..    ",
" . ..                  ....   ",
"  . ..                ....    ",
" . ....              ......   ",
"  . ....            ......  . ",
"  .. ....          ......  .  ",
"   .. ....        ...... ..   ",
"    .. ....      ...... ..    ",
"     .. ....    ...... ..     ",
"      .. ....  ...... ..      ",
"       .. .......... ..       ",
"        .. ........ ..        ",
"         .. ...... ..         ",
"          ....... ..          ",
"          .........           ",
"         ..........           ",
"        ............          ",
"       ...... .. ....         ",
"      ...... .... ....        ",
"     ...... ..  .. ....       ",
"    ...... ..    .. ....      ",
"   ...... ..      .. ....     ",
"  ...... ..        .. ....    ",
" . .... ..          .. ....   ",
"  . .. ..            .. ...   ",
" . .. ..              .. ...  ",
"   . ..                .    . ",
"  . .                   .     ",
"   .                     .    "};
