/* XPM */
static char * Queen_xpm[] = {
"13 13 34 1",
" 	c #FFFFFF",
".	c #BFBFBF",
"+	c #000000",
"@	c #0E0E0E",
"#	c #474747",
"$	c #D5D5D5",
"%	c #E7E7E7",
"&	c #CDCDCD",
"*	c #454545",
"=	c #272727",
"-	c #EBEBEB",
";	c #B8B8B8",
">	c #F7F7F7",
",	c #F0F0F0",
"'	c #5D5D5D",
")	c #292929",
"!	c #0B0B0B",
"~	c #252525",
"{	c #DCDCDC",
"]	c #CACACA",
"^	c #D8D8D8",
"/	c #9F9F9F",
"(	c #090909",
"_	c #ABABAB",
":	c #828282",
"<	c #242424",
"[	c #FDFDFD",
"}	c #EDEDED",
"|	c #070707",
"1	c #AFAFAF",
"2	c #5A5A5A",
"3	c #3E3E3E",
"4	c #C0C0C0",
"5	c #CCCCCC",
"             ",
"             ",
"   .+++@#$   ",
"   .+$%&*=   ",
"   .+-  ;+>  ",
"   .+- ,')   ",
"   .+!!+~{   ",
"   .+]^/(_   ",
"   .+-  :<[  ",
"   .+-  }|1  ",
"   .+-   23  ",
"   .+-   4+5 ",
"             "};
