/* XPM */
static char * Sud_xpm[] = {
"30 30 3 1",
" 	c None",
".	c #616161",
"+	c #000000",
"..............................",
"..............................",
"..............................",
"..............................",
"..............................",
"..............................",
"..............................",
"..............++..............",
"..............++..............",
"..............++..............",
"..............++..............",
"..............++..............",
"..............++..............",
"..............++..............",
"..............++..............",
"..............++..............",
"..............++..............",
"..............++..............",
"..............++..............",
".........++...++...++.........",
"..........++..++..++..........",
"...........++.++.++...........",
"............++++++............",
".............++++.............",
"..............++..............",
"..............................",
"..............................",
"..............................",
"..............................",
".............................."};
